<?xml version="1.0" encoding="UTF-8"?>
<!DOCTYPE svg PUBLIC "-//W3C//DTD SVG 1.1//EN" "http://www.w3.org/Graphics/SVG/1.1/DTD/svg11.dtd">
<svg xmlns="http://www.w3.org/2000/svg" version="1.1" width="384px" height="384px" style="shape-rendering:geometricPrecision; text-rendering:geometricPrecision; image-rendering:optimizeQuality; fill-rule:evenodd; clip-rule:evenodd" xmlns:xlink="http://www.w3.org/1999/xlink">
<g><path style="opacity:0.999" fill="#00adfc" d="M 25.5,-0.5 C 136.167,-0.5 246.833,-0.5 357.5,-0.5C 370.5,3.83333 379.167,12.5 383.5,25.5C 383.5,136.167 383.5,246.833 383.5,357.5C 379.167,370.5 370.5,379.167 357.5,383.5C 246.833,383.5 136.167,383.5 25.5,383.5C 12.5,379.167 3.83333,370.5 -0.5,357.5C -0.5,246.833 -0.5,136.167 -0.5,25.5C 3.83333,12.5 12.5,3.83333 25.5,-0.5 Z"/></g>
<g><path style="opacity:1" fill="#fefefe" d="M 261.5,10.5 C 291.252,12.3713 309.419,28.3713 316,58.5C 350.542,67.6467 365.208,89.9801 360,125.5C 354.598,145.235 342.098,158.069 322.5,164C 309.772,167.337 297.105,166.171 284.5,160.5C 283.5,161 282.5,161.5 281.5,162C 238.5,203 195.5,244 152.5,285C 162.203,309.79 157.536,331.457 138.5,350C 114.91,365.581 91.5766,365.248 68.5,349C 59.2307,338.963 53.2307,327.13 50.5,313.5C 17.4928,305.523 2.65946,284.523 6,250.5C 12.671,222.656 30.3377,207.989 59,206.5C 62.5093,206.452 65.8426,207.119 69,208.5C 69.414,208.043 69.914,207.709 70.5,207.5C 75.1724,209.356 79.8391,210.856 84.5,212C 127.333,170.5 170.167,129 213,87.5C 204.326,63.025 209.159,41.525 227.5,23C 237.892,15.9284 249.226,11.7617 261.5,10.5 Z"/></g>
</svg>
